<?xml version="1.0" encoding="UTF-8"?>
<svg id="Layer_1" data-name="Layer 1" xmlns="http://www.w3.org/2000/svg" viewBox="0 0 1619.96 626.01">
  <defs>
    <style>
      .cls-1 {
        fill: #fff;
      }

      .cls-2 {
        fill: #0979ec;
      }

      .cls-3 {
        fill: #1a1e4f;
      }
    </style>
  </defs>
  <path d="M1619.73,84.66c-.6-2.51-.88-5.33-1.18-8.33-.68-6.88-1.45-14.67-6.34-22.15-9.12-13.93-24.18-14.36-35.18-14.67-2.99-.08-5.8-.16-8.33-.46-36.42-4.26-73.39-9.88-109.15-15.32-36.27-5.52-73.77-11.23-110.91-15.54-.07,0-85.55-8.15-85.55-8.15-.31-.03-.63-.04-.95-.04h-18.99c-.18,0-.37,0-.55.02-31.46,1.75-62.86,8.79-93.23,15.6-14.41,3.23-29.31,6.57-43.79,9.23-12.06,2.22-25.85,4.09-40.46,6.07-33.48,4.54-71.42,9.68-98.23,20.83-16.93,7.04-28.97,22.57-40.61,37.58-12.06,15.56-23.47,30.28-38.87,34.72-14.74.21-30.3.31-46.28.31-18.18,0-37.19-.13-58.14-.4-.66,0-1.33-.01-2.02-.01-4.91,0-10.37.2-16.15.41-6.01.22-12.22.45-17.98.45-6.53,0-11.47-.3-15.09-.91-11.35-1.92-24.17-17.98-36.58-33.51-12.52-15.67-25.47-31.88-40.6-38.35-26.45-11.31-65.16-16.55-99.32-21.17-14.59-1.98-28.37-3.84-40.2-6.02-14.42-2.65-28.48-5.68-42.07-8.62-37.08-7.99-72.1-15.55-112.22-15.55-4.41,0-8.86.09-13.23.28-60.71,2.58-123.8,12.51-184.81,22.12-31.06,4.89-63.17,9.95-94.02,13.85-5.12.65-10.54.99-16.27,1.36-7.24.46-14.73.94-21.7,2.09C5.44,44.57,3.13,64.93,1.77,80.29c-.54,1.02-1.02,2.36-1.14,4-1.03,14.59-.58,29.77-.14,44.45.38,12.9.78,26.25.13,38.74-.06,1.22.1,2.44.47,3.6.54,1.67.71,4.03.89,6.52.24,3.37.52,7.19,1.75,11.18,4.24,13.7,21.17,23.71,36.1,32.55,4.13,2.44,8.03,4.75,10.75,6.65,30.11,21.04,31.54,28.8,37.55,61.45.7,3.8,1.45,7.88,2.31,12.29,4.11,21.21,7.63,43.03,11.04,64.13,7.7,47.73,15.67,97.08,31.15,144.2.5,1.52,1.36,2.9,2.5,4.02,9.25,9.08,18.52,18.54,27.48,27.69,11.17,11.41,22.72,23.2,34.47,34.49,1.72,1.65,3.68,3.58,5.82,5.69,19.54,19.23,38.38,36.79,54.03,40.55,6.47,1.55,12.93,1.73,19.18,1.9,5.46.15,10.62.3,15.08,1.35.76.18,1.53.27,2.31.27h74.97c1.57,0,3.08-.37,4.45-1.04.33.02.65.03.95.03h.21c20.18-.25,40.62-.93,60.39-1.59,24.73-.83,50.3-1.68,75.4-1.68,16.03,0,30.51.34,44.28,1.04.17,0,.34.01.51.01.52,0,1.03-.04,1.54-.12,12.85-2,35.59-17.24,76.05-50.99l3.37-2.81c18.81-15.63,38.26-31.8,49.58-55.12,17.44-35.92,31.11-76.81,44.33-116.36,8.07-24.14,16.42-49.1,25.35-71.98.87-2.22,1.71-4.41,2.54-6.57,13.98-36.24,21.48-52.26,52.73-52.26,2.74,0,5.67.14,8.73.41,23.69,2.11,32.81,21.62,44.03,51.14.93,2.46,1.86,4.89,2.79,7.27,8.91,22.81,17.23,47.73,25.27,71.83,13.23,39.62,26.91,80.59,44.42,116.52,12.03,24.68,35.06,43.45,55.38,60.01l4.94,4.03c26.78,21.91,53.63,42.51,68.68,44.86.51.08,1.02.12,1.54.12h.33c16.39-.54,33.34-.8,51.84-.8,35.13,0,69.74.94,105.04,1.99l26.21,2.02c.26.02.51.03.77.03h74.97c.3,0,.6-.01.89-.04l36.23-3.25c.71-.06,1.4-.2,2.08-.41,14.95-4.65,26.34-15.08,36.39-24.28l.14-.13c18.13-16.59,35.6-34.37,52.48-51.56,10.48-10.67,21.31-21.69,32.13-32.25,1.16-1.13,2.02-2.52,2.52-4.05,15.36-47.08,23.33-96.35,31.05-144.01,3.16-19.52,6.42-39.7,10.14-59.35,1.05-5.53,1.94-10.66,2.73-15.19,5.63-32.26,7.33-41.99,38.12-63.51,2.82-1.97,6.71-4.26,10.82-6.69,15.33-9.04,32.7-19.29,36.59-34.56.87-3.42,1.04-6.82,1.18-9.82.12-2.48.24-5.04.76-6.45.41-1.11.62-2.28.62-3.46v-80c0-.79-.09-1.57-.28-2.33h.05ZM218.51,108.12c20.42-1.92,40.9-5.08,60.72-8.13,23.75-3.66,48.3-7.45,72.4-9.01,6.14-.4,12.51-.6,18.92-.6,44.96,0,90.74,9.88,135.01,19.44,18.97,4.1,38.59,8.33,57.89,11.73,6.31,1.11,12.63,1.82,18.75,2.51,20.25,2.27,37.73,4.23,49.78,19.27,13.87,17.31,32.02,46.21,42.78,65.8,21,38.25,19.6,52.35,7.28,91.79l-137.29-1.33-74.75-159.85c-1.65-3.53-5.2-5.76-9.06-5.76-.22,0-.44,0-.67.02-4.11.27-7.64,3.04-8.88,6.98l-60.17,191.17-47.67-104.32c-.72-1.57-1.82-2.92-3.22-3.93-1.86-1.35-4.05-2.06-6.35-2.06-6.76,0-10.84,5.85-13.82,10.12-.2.28-.36.52-.47.66-8.38,11.03-16.22,22.78-23.79,34.15-7.37,11.06-14.97,22.45-22.99,33.05h-1.76c-33.69,0-66.74.47-100.28,1.03-1.05-5.7-2.15-11.47-3.31-17.47-13.85-72-28.16-146.44,50.92-175.25h.03ZM594.57,503.2c-14.3,13.39-50.74,43.02-59.23,45.76-6.73,2.17-22.59,2.85-27.8,3.08-12.8.55-26.31.82-41.29.82-24.77,0-50.18-.75-74.76-1.48-24.72-.73-50.27-1.49-75.32-1.49-3.77,0-7.54.02-11.3.05-3,.03-5.37.23-7.46.41-1.61.14-3,.26-4.33.26-1.47,0-3.42-.12-6.77-1.01-10.45-2.79-40.07-28.91-62.64-52.07-18.25-18.73-22.33-24.58-28.06-49.6-3.77-16.44-6.18-34-8.51-50.98-.99-7.25-2.02-14.67-3.15-22.05l118.67-.14h.27c8.94,0,14.3-9.25,21.97-23.43l70.52,152.83c1.64,3.56,5.2,5.81,9.08,5.81.23,0,.47,0,.71-.03,4.15-.29,7.68-3.12,8.87-7.11l57.92-193.41,31.25,60c1.72,3.31,5.14,5.38,8.87,5.38.03,0,104.31-1.22,143.1-1.67-2.1,6.18-4.21,12.62-6.38,19.27-13.25,40.53-28.28,86.48-54.23,110.78v.02ZM952.44,198.18c9.44-15.92,23.47-38.93,36.2-54.86,12.01-15.03,29.46-16.98,49.67-19.25,6.15-.69,12.52-1.4,18.86-2.53,19.12-3.39,38.57-7.59,57.37-11.66,44.4-9.59,90.32-19.51,135.44-19.51,6.44,0,12.83.2,18.99.6,24.05,1.56,48.55,5.34,72.25,8.99,19.88,3.06,40.41,6.23,60.89,8.14,79.01,28.91,64.72,103.31,50.91,175.27-1.15,6-2.26,11.77-3.3,17.47-33.55-.56-66.57-1.03-99.99-1.03h-2.06c-8.26-10.86-16-22.48-23.52-33.75-7.38-11.08-15.02-22.53-23.22-33.41-.12-.16-.27-.39-.46-.66-2.99-4.29-7.09-10.17-13.86-10.17-2.29,0-4.48.71-6.33,2.05-1.37.99-2.46,2.31-3.18,3.83l-48.99,103.73-58.89-190.42c-1.22-3.95-4.74-6.74-8.87-7.02-.23-.02-.46-.02-.69-.02-3.86,0-7.4,2.23-9.06,5.76l-74.75,159.85-137.27,1.33c-14.39-46.69-12.1-58.98,13.86-102.74h0ZM1410.93,482.58c-12.61,15.04-53.4,54.94-69.1,63.93-5.69,3.26-9.09,3.87-13.38,3.87-1.58,0-3.29-.08-5.27-.18-2.17-.1-4.63-.22-7.42-.25-3.76-.04-7.53-.05-11.3-.05-25.05,0-50.6.76-75.32,1.49-24.58.73-49.99,1.48-74.76,1.48-14.98,0-28.48-.27-41.29-.82-5.21-.23-21.07-.91-27.8-3.08-8.61-2.78-44.54-32.01-59.24-45.76-25.83-24.16-40.93-70.26-54.26-110.93-2.16-6.6-4.26-12.98-6.34-19.11,38.79.45,143.06,1.67,143.09,1.67,3.72,0,7.14-2.07,8.87-5.38l31.29-60.06,58.4,193.5c1.2,3.98,4.74,6.8,8.89,7.09.23.02.46.02.69.02,3.89,0,7.45-2.26,9.09-5.83l70.11-152.95c.17.33.33.64.48.94,5.58,10.94,10.39,20.39,19.3,22.38.71.16,1.44.24,2.17.24l118.91.14c-.69,4.87-1.38,10.13-2.1,15.58-4.17,31.91-9.89,75.61-23.7,92.08h-.01Z"/>
  <path class="cls-3" d="M1262.14,9.99l85.34,8.12c73.57,8.55,146.5,22.27,220.05,30.87,12.74,1.49,28.16-1.79,36.31,10.68,5.43,8.3,3.97,18.17,6.16,27.33v80c-1.91,5.18-.87,11.84-2.25,17.25-3.81,14.94-30.81,26.69-43.45,35.53-38.96,27.22-36.48,40.31-44.95,85.03-12.78,67.52-19.49,136.56-40.87,202.11-28.29,27.61-55.21,56.9-84.38,83.59-9.72,8.9-19.88,18.23-32.75,22.23l-36.23,3.25h-74.97l-26.45-2.04c-52.58-1.56-105.09-2.92-157.74-1.2-14.91-2.32-52.12-33.1-65.19-43.78-20.57-16.82-44.61-35.5-56.36-59.62-27.94-57.32-45.9-127.51-69.37-187.61-10.79-27.63-20.59-61.65-55.24-64.73-50.39-4.49-58.76,25.19-74.21,64.73-23.48,60.13-41.51,130.22-69.37,187.61-11.03,22.72-31.3,38.72-50.36,54.62-13.79,11.5-55.57,46.35-71.19,48.78-60.4-3.08-120.47,1.48-180.71,2.22-1.69.02-4.44-.64-5.48,1.02h-74.97c-10.95-2.6-23.35-.64-34.24-3.25-16.49-3.95-42.4-31.37-55.26-43.72-21.06-20.22-41.03-41.66-61.87-62.1-22.05-67.12-28.47-137.99-41.87-207.11-8.33-42.97-6.67-53.98-43.95-80.03-11.91-8.32-38.87-20.53-43.02-33.96-1.8-5.81-.86-12.21-2.68-17.82,1.41-27.11-1.89-56.12,0-83,0-.19.86-.8.93-1.59,1.38-15.66,2.14-30.06,20.82-33.16,11.66-1.93,25.4-1.86,37.59-3.4,90.94-11.51,186.75-32.02,277.98-35.89,59.59-2.53,108.2,13.22,165.29,23.73,40.1,7.38,101.35,11.14,137.4,26.55,27.66,11.83,51.27,67.77,79.45,72.52,13.86,2.34,37.63,0,52.78.2,35.23.45,70.57.58,105.95.07,35.84-9.12,50.57-60.02,81.92-73.05,36.76-15.28,96.16-18.85,136.66-26.29,44.85-8.24,90.24-22.16,135.76-24.69h18.99Z"/>
  <path class="cls-1" d="M162.55,310.99c3.23,18.67,6.82,37.32,10,56,4.67,27.47,7.1,56.15,13.31,83.19s11.43,34.62,30.65,54.34c13.02,13.36,51.03,50.43,67.22,54.75,9.44,2.52,12.7.76,21.23.68,67.36-.65,136.09,4.97,203.01,2.08,8.27-.36,22.88-1.12,30.44-3.55,12.14-3.91,52.11-37.77,63-47.98,35.6-33.33,51.13-101.94,67.96-147.51,6.65-18.02,13.98-33.11,19.99-52,14.61-45.88,18.21-62.88-5.83-106.67-11.07-20.17-29.46-49.43-43.74-67.24-18.81-23.47-47.52-20.6-74.6-25.38-70.54-12.43-142-35.39-214.2-30.7-45.12,2.93-89.65,13.17-134.67,17.28-99.08,35.13-67.29,134.51-53.77,212.71h0Z"/>
  <path class="cls-1" d="M931.27,310.99c6.07,19.06,13.37,34.07,19.99,52,16.78,45.4,32.55,114.4,67.96,147.51,10.94,10.23,50.81,44.05,63,47.98,7.56,2.44,22.17,3.2,30.44,3.55,66.92,2.88,135.65-2.73,203.01-2.08,12.86.12,18.69,2.36,31.14-4.77,16.91-9.68,58.56-50.4,71.79-66.18,20.01-23.86,23.99-89.92,29.48-122.01,3.19-18.68,6.77-37.33,10-56,13.5-78.21,45.23-177.46-53.76-212.72-45.03-4.08-89.55-14.34-134.68-17.27-72.22-4.69-143.64,18.19-214.2,30.7-27.02,4.79-55.81,1.86-74.6,25.38-12.7,15.9-26.5,38.32-36.99,56-29.14,49.12-29.83,63.78-12.58,117.92h0Z"/>
  <path class="cls-2" d="M931.27,310.99l150.98-1.46,77.42-165.55,66.49,215.01,59.98-127c1.67-1.21,5.73,5.27,6.8,6.68,17.38,23.06,31.95,48.41,49.83,71.15,38.51-.08,76.89.51,115.29,1.16-3.22,18.67-6.8,37.32-10,56l-5.43-2.07-124.8-.15c-8.13-1.82-15.6-28.98-23.69-33.78l-77.47,169-65.5-217.01-42.63,81.84-157.28-1.84c-6.63-17.93-13.92-32.94-19.99-52v.02Z"/>
  <path class="cls-2" d="M162.55,310.99c38.4-.65,76.79-1.24,115.29-1.17,17.75-22.65,32.49-48.32,49.83-71.15,1.07-1.41,5.13-7.9,6.8-6.68l58.49,127.99,67.99-216,77.42,165.55,150.98,1.46c-6.01,18.89-13.34,33.98-19.99,52l-157.28,1.84-42.63-81.84-64.99,217-77.98-169c-3.12-2.37-17.55,34.19-23.69,33.78l-124.8.15-5.43,2.07c-3.18-18.68-6.77-37.33-10-56h0Z"/>
</svg>